<svg xmlns="http://www.w3.org/2000/svg" version="1.1" xmlns:xlink="http://www.w3.org/1999/xlink" xmlns:svgjs="http://svgjs.dev/svgjs" width="1500" height="1191" viewBox="0 0 1500 1191"><g transform="matrix(1,0,0,1,0.5448060196152937,0.48218623481773193)"><svg viewBox="0 0 311 247" data-background-color="#ffffff" preserveAspectRatio="xMidYMid meet" height="1191" width="1500" xmlns="http://www.w3.org/2000/svg" xmlns:xlink="http://www.w3.org/1999/xlink"><g id="tight-bounds" transform="matrix(1,0,0,1,-0.1129564480669103,-0.09999999999999432)"><svg viewBox="0 0 311.2259128961338 247.2" height="247.2" width="311.2259128961338"><g><svg viewBox="0 0 395.52 314.15296718120595" height="247.2" width="311.2259128961338"><g transform="matrix(1,0,0,1,0,190.90623312752874)"><svg viewBox="0 0 395.52 123.24673405367723" height="123.24673405367723" width="395.52"><g id="textblocktransform"><svg viewBox="0 0 395.52 123.24673405367723" height="123.24673405367723" width="395.52" id="textblock"><g><svg viewBox="0 0 395.52 123.24673405367723" height="123.24673405367723" width="395.52"><g transform="matrix(1,0,0,1,0,0)"><svg width="395.52" viewBox="1.95 -35.35 143.44 44.7" height="123.24673405367723" data-palette-color="#043565"><path d="M24.2-9.8L24.2-9.8Q24.2-5.25 20.85-2.43 17.5 0.4 11.95 0.4L11.95 0.4Q6 0.4 2.25-1.7L2.25-1.7 2.25-9.45Q6.8-6.15 11.95-6.15L11.95-6.15Q13.7-6.15 14.85-7.08 16-8 16-9.5L16-9.5Q16-10 15.85-10.45 15.7-10.9 15.3-11.3 14.9-11.7 14.53-11.98 14.15-12.25 13.43-12.63 12.7-13 12.2-13.25 11.7-13.5 10.73-13.95 9.75-14.4 9.15-14.65L9.15-14.65Q5.9-16.15 3.93-18.35 1.95-20.55 1.95-24.2L1.95-24.2Q1.95-28.55 5.15-31.23 8.35-33.9 14-33.9L14-33.9Q19.05-33.9 22.7-32.2L22.7-32.2 22.7-25Q18.65-27.35 14.3-27.35L14.3-27.35Q12.35-27.35 11.33-26.55 10.3-25.75 10.3-24.5 10.3-23.25 11.55-22.28 12.8-21.3 15.3-20.2L15.3-20.2Q16.85-19.5 17.88-18.98 18.9-18.45 20.23-17.53 21.55-16.6 22.33-15.58 23.1-14.55 23.65-13.05 24.2-11.55 24.2-9.8ZM51.95-16.15L51.95 0 44.65 0 44.65-15Q44.65-17.2 43.55-18.45 42.45-19.7 40.7-19.7L40.7-19.7Q39.95-19.7 39.27-19.48 38.6-19.25 37.8-18.68 37-18.1 36.5-16.73 36-15.35 36-13.4L36-13.4 36 0 28.7 0 28.7-35.35 36-35.35 36-21.05Q37.95-25.6 43.6-25.6L43.6-25.6Q47.3-25.6 49.62-23.25 51.95-20.9 51.95-16.15L51.95-16.15ZM81.3-12.8L81.3-12.8Q81.3-7.05 78.02-3.33 74.75 0.4 68.9 0.4L68.9 0.4Q62.95 0.4 59.7-3.18 56.45-6.75 56.45-12.35L56.45-12.35Q56.45-18.2 59.85-21.98 63.25-25.75 68.9-25.75L68.9-25.75Q74.8-25.75 78.05-22.1 81.3-18.45 81.3-12.8ZM65.25-17.95Q64.05-15.9 64.05-12.65 64.05-9.4 65.27-7.33 66.5-5.25 68.95-5.25L68.95-5.25Q71.35-5.25 72.52-7.28 73.7-9.3 73.7-12.55L73.7-12.55Q73.7-20 68.85-20L68.85-20Q66.45-20 65.25-17.95ZM93.34-3.75L93.34 9.35 86.04 9.35 86.04-25.35 93.34-25.35 93.34-21.45Q95.99-25.65 100.99-25.65L100.99-25.65Q105.89-25.65 108.87-22.18 111.84-18.7 111.84-12.75L111.84-12.75Q111.84-7.1 108.97-3.4 106.09 0.3 100.99 0.3L100.99 0.3Q95.84 0.3 93.34-3.75L93.34-3.75ZM93.34-12.95L93.34-12.95Q93.34-9.7 94.94-7.75 96.54-5.8 99.04-5.8L99.04-5.8Q101.44-5.8 102.94-7.63 104.44-9.45 104.44-12.6L104.44-12.6Q104.44-16.05 102.92-17.82 101.39-19.6 99.04-19.6L99.04-19.6Q96.74-19.6 95.04-17.85 93.34-16.1 93.34-12.95ZM130.14-10.5L124.24 0 114.94 0 125.59-17.1 115.44-33.7 124.39-33.7 129.99-23.85 135.34-33.7 144.74-33.7 134.54-17.05 145.39 0 136.24 0 130.14-10.5Z" opacity="1" transform="matrix(1,0,0,1,0,0)" fill="#043565" class="wordmark-text-0" data-fill-palette-color="primary" id="text-0"></path></svg></g></svg></g></svg></g></svg></g><g transform="matrix(1,0,0,1,105.92720983146124,0)"><svg viewBox="0 0 183.6655803370775 161.81063713907284" height="161.81063713907284" width="183.6655803370775"><g><svg xmlns="http://www.w3.org/2000/svg" xmlns:xlink="http://www.w3.org/1999/xlink" version="1.1" x="0" y="0" viewBox="6.3 11.5 87.4 77" style="enable-background:new 0 0 100 100;" xml:space="preserve" height="161.81063713907284" width="183.6655803370775" class="icon-icon-0" data-fill-palette-color="accent" id="icon-0"><path d="M72.3 12.3L72.3 12.3 72.3 12.3l-0.4-0.8H28.2L6.3 50l21.8 38.5h43.7L93.7 50 72.3 12.3zM33.3 25.3L9.9 47.7l18.6-32.8L33.3 25.3zM70.7 14.8l6.4 35.7L36.9 25.8 70.7 14.8zM35.5 27.3l41 25.2-41 23.3V27.3zM77 54.5l-7.2 30.8-32.6-8.1L77 54.5zM33.5 75L9.9 50.5l23.6-22.7V75zM33.2 77.6l-4.6 7.7L11.5 55.1 33.2 77.6zM35 78.6l31.4 7.9H30.2L35 78.6zM79.3 53.3l11.6-2.5L72.1 84 79.3 53.3zM90.7 48.9l-11.4 2.5-5.9-33.1L90.7 48.9zM35 24.3l-5-10.8h38.2L35 24.3z" fill="#043565" data-fill-palette-color="accent"></path></svg></g></svg></g><g></g></svg></g><defs></defs></svg><rect width="311.2259128961338" height="247.2" fill="none" stroke="none" visibility="hidden"></rect></g></svg></g></svg>